<?xml version="1.0" encoding="UTF-8" standalone="no"?><svg xmlns="http://www.w3.org/2000/svg" xmlns:xlink="http://www.w3.org/1999/xlink" contentScriptType="application/ecmascript" contentStyleType="text/css" height="443px" preserveAspectRatio="none" style="width:518px;height:443px;" version="1.1" viewBox="0 0 518 443" width="518px" zoomAndPan="magnify"><defs><filter height="300%" id="f1ek4613qk8ka" width="300%" x="-1" y="-1"><feGaussianBlur result="blurOut" stdDeviation="2.0"/><feColorMatrix in="blurOut" result="blurOut2" type="matrix" values="0 0 0 0 0 0 0 0 0 0 0 0 0 0 0 0 0 0 .4 0"/><feOffset dx="4.0" dy="4.0" in="blurOut2" result="blurOut3"/><feBlend in="SourceGraphic" in2="blurOut3" mode="normal"/></filter></defs><g><!--MD5=[335f4d9be48430461c68bf6d6fdba145]
class App--><rect fill="#FEFECE" filter="url(#f1ek4613qk8ka)" height="48" id="App" style="stroke: #A80036; stroke-width: 1.5;" width="56" x="146.5" y="14.5"/><ellipse cx="161.5" cy="30.5" fill="#ADD1B2" rx="11" ry="11" style="stroke: #A80036; stroke-width: 1.0;"/><path d="M164.4688,36.1406 Q163.8906,36.4375 163.25,36.5859 Q162.6094,36.7344 161.9063,36.7344 Q159.4063,36.7344 158.0859,35.0859 Q156.7656,33.4375 156.7656,30.3125 Q156.7656,27.1875 158.0859,25.5313 Q159.4063,23.875 161.9063,23.875 Q162.6094,23.875 163.2578,24.0313 Q163.9063,24.1875 164.4688,24.4844 L164.4688,27.2031 Q163.8438,26.625 163.25,26.3516 Q162.6563,26.0781 162.0313,26.0781 Q160.6875,26.0781 160,27.1484 Q159.3125,28.2188 159.3125,30.3125 Q159.3125,32.4063 160,33.4766 Q160.6875,34.5469 162.0313,34.5469 Q162.6563,34.5469 163.25,34.2734 Q163.8438,34 164.4688,33.4219 L164.4688,36.1406 Z "/><text fill="#000000" font-family="sans-serif" font-size="12" lengthAdjust="spacingAndGlyphs" textLength="24" x="175.5" y="34.6543">App</text><line style="stroke: #A80036; stroke-width: 1.5;" x1="147.5" x2="201.5" y1="46.5" y2="46.5"/><line style="stroke: #A80036; stroke-width: 1.5;" x1="147.5" x2="201.5" y1="54.5" y2="54.5"/><!--MD5=[df831a01c8b6c2ec1f82dc9f5bfcbb29]
class TranscoderFactory--><rect fill="#FEFECE" filter="url(#f1ek4613qk8ka)" height="60.8047" id="TranscoderFactory" style="stroke: #A80036; stroke-width: 1.5;" width="269" x="238" y="8"/><ellipse cx="309.75" cy="24" fill="#ADD1B2" rx="11" ry="11" style="stroke: #A80036; stroke-width: 1.0;"/><path d="M312.7188,29.6406 Q312.1406,29.9375 311.5,30.0859 Q310.8594,30.2344 310.1563,30.2344 Q307.6563,30.2344 306.3359,28.5859 Q305.0156,26.9375 305.0156,23.8125 Q305.0156,20.6875 306.3359,19.0313 Q307.6563,17.375 310.1563,17.375 Q310.8594,17.375 311.5078,17.5313 Q312.1563,17.6875 312.7188,17.9844 L312.7188,20.7031 Q312.0938,20.125 311.5,19.8516 Q310.9063,19.5781 310.2813,19.5781 Q308.9375,19.5781 308.25,20.6484 Q307.5625,21.7188 307.5625,23.8125 Q307.5625,25.9063 308.25,26.9766 Q308.9375,28.0469 310.2813,28.0469 Q310.9063,28.0469 311.5,27.7734 Q312.0938,27.5 312.7188,26.9219 L312.7188,29.6406 Z "/><text fill="#000000" font-family="sans-serif" font-size="12" lengthAdjust="spacingAndGlyphs" textLength="117" x="330.25" y="28.1543">TranscoderFactory</text><line style="stroke: #A80036; stroke-width: 1.5;" x1="239" x2="506" y1="40" y2="40"/><line style="stroke: #A80036; stroke-width: 1.5;" x1="239" x2="506" y1="48" y2="48"/><ellipse cx="249" cy="59" fill="#84BE84" rx="3" ry="3" style="stroke: #038048; stroke-width: 1.0;"/><text fill="#000000" font-family="sans-serif" font-size="11" lengthAdjust="spacingAndGlyphs" textLength="243" x="258" y="62.2104">getInstance(String transcoder):Transcoder</text><!--MD5=[ef746a0dd6f5ed5e02df2441ced1c3c1]
class TranscodingService--><rect fill="#FEFECE" filter="url(#f1ek4613qk8ka)" height="73.6094" id="TranscodingService" style="stroke: #A80036; stroke-width: 1.5;" width="195" x="77" y="129"/><ellipse cx="110.45" cy="145" fill="#ADD1B2" rx="11" ry="11" style="stroke: #A80036; stroke-width: 1.0;"/><path d="M113.4188,150.6406 Q112.8406,150.9375 112.2,151.0859 Q111.5594,151.2344 110.8563,151.2344 Q108.3563,151.2344 107.0359,149.5859 Q105.7156,147.9375 105.7156,144.8125 Q105.7156,141.6875 107.0359,140.0313 Q108.3563,138.375 110.8563,138.375 Q111.5594,138.375 112.2078,138.5313 Q112.8563,138.6875 113.4188,138.9844 L113.4188,141.7031 Q112.7938,141.125 112.2,140.8516 Q111.6063,140.5781 110.9813,140.5781 Q109.6375,140.5781 108.95,141.6484 Q108.2625,142.7188 108.2625,144.8125 Q108.2625,146.9063 108.95,147.9766 Q109.6375,149.0469 110.9813,149.0469 Q111.6063,149.0469 112.2,148.7734 Q112.7938,148.5 113.4188,147.9219 L113.4188,150.6406 Z "/><text fill="#000000" font-family="sans-serif" font-size="12" lengthAdjust="spacingAndGlyphs" textLength="122" x="128.55" y="149.1543">TranscodingService</text><line style="stroke: #A80036; stroke-width: 1.5;" x1="78" x2="271" y1="161" y2="161"/><rect fill="none" height="6" style="stroke: #C82930; stroke-width: 1.0;" width="6" x="85" y="169"/><text fill="#000000" font-family="sans-serif" font-size="11" lengthAdjust="spacingAndGlyphs" textLength="131" x="97" y="175.2104">transcoder:Transcoder</text><line style="stroke: #A80036; stroke-width: 1.5;" x1="78" x2="271" y1="181.8047" y2="181.8047"/><ellipse cx="88" cy="192.8047" fill="#84BE84" rx="3" ry="3" style="stroke: #038048; stroke-width: 1.0;"/><text fill="#000000" font-family="sans-serif" font-size="11" lengthAdjust="spacingAndGlyphs" textLength="169" x="97" y="196.0151">transcode(input:String):String</text><!--MD5=[d3237770769356157f2a52b2e6deb81a]
class Transcoder--><rect fill="#FEFECE" filter="url(#f1ek4613qk8ka)" height="60.8047" id="Transcoder" style="stroke: #A80036; stroke-width: 1.5;" width="195" x="77" y="263"/><ellipse cx="134.75" cy="279" fill="#B4A7E5" rx="11" ry="11" style="stroke: #A80036; stroke-width: 1.0;"/><path d="M130.6719,274.7656 L130.6719,272.6094 L138.0625,272.6094 L138.0625,274.7656 L135.5938,274.7656 L135.5938,282.8438 L138.0625,282.8438 L138.0625,285 L130.6719,285 L130.6719,282.8438 L133.1406,282.8438 L133.1406,274.7656 L130.6719,274.7656 Z "/><text fill="#000000" font-family="sans-serif" font-size="12" font-style="italic" lengthAdjust="spacingAndGlyphs" textLength="71" x="155.25" y="283.1543">Transcoder</text><line style="stroke: #A80036; stroke-width: 1.5;" x1="78" x2="271" y1="295" y2="295"/><line style="stroke: #A80036; stroke-width: 1.5;" x1="78" x2="271" y1="303" y2="303"/><ellipse cx="88" cy="314" fill="#84BE84" rx="3" ry="3" style="stroke: #038048; stroke-width: 1.0;"/><text fill="#000000" font-family="sans-serif" font-size="11" lengthAdjust="spacingAndGlyphs" textLength="169" x="97" y="317.2104">transcode(input:String):String</text><!--MD5=[2aa71e7ee1a498b3b6680cdc65eeb7a5]
class ReverseTranscoder--><rect fill="#FEFECE" filter="url(#f1ek4613qk8ka)" height="48" id="ReverseTranscoder" style="stroke: #A80036; stroke-width: 1.5;" width="153" x="6" y="384"/><ellipse cx="21" cy="400" fill="#ADD1B2" rx="11" ry="11" style="stroke: #A80036; stroke-width: 1.0;"/><path d="M23.9688,405.6406 Q23.3906,405.9375 22.75,406.0859 Q22.1094,406.2344 21.4063,406.2344 Q18.9063,406.2344 17.5859,404.5859 Q16.2656,402.9375 16.2656,399.8125 Q16.2656,396.6875 17.5859,395.0313 Q18.9063,393.375 21.4063,393.375 Q22.1094,393.375 22.7578,393.5313 Q23.4063,393.6875 23.9688,393.9844 L23.9688,396.7031 Q23.3438,396.125 22.75,395.8516 Q22.1563,395.5781 21.5313,395.5781 Q20.1875,395.5781 19.5,396.6484 Q18.8125,397.7188 18.8125,399.8125 Q18.8125,401.9063 19.5,402.9766 Q20.1875,404.0469 21.5313,404.0469 Q22.1563,404.0469 22.75,403.7734 Q23.3438,403.5 23.9688,402.9219 L23.9688,405.6406 Z "/><text fill="#000000" font-family="sans-serif" font-size="12" lengthAdjust="spacingAndGlyphs" textLength="121" x="35" y="404.1543">ReverseTranscoder</text><line style="stroke: #A80036; stroke-width: 1.5;" x1="7" x2="158" y1="416" y2="416"/><line style="stroke: #A80036; stroke-width: 1.5;" x1="7" x2="158" y1="424" y2="424"/><!--MD5=[4901b9946b0e56ba2283599a41d82b48]
class ShuffleTranscoder--><rect fill="#FEFECE" filter="url(#f1ek4613qk8ka)" height="48" id="ShuffleTranscoder" style="stroke: #A80036; stroke-width: 1.5;" width="146" x="194.5" y="384"/><ellipse cx="209.5" cy="400" fill="#ADD1B2" rx="11" ry="11" style="stroke: #A80036; stroke-width: 1.0;"/><path d="M212.4688,405.6406 Q211.8906,405.9375 211.25,406.0859 Q210.6094,406.2344 209.9063,406.2344 Q207.4063,406.2344 206.0859,404.5859 Q204.7656,402.9375 204.7656,399.8125 Q204.7656,396.6875 206.0859,395.0313 Q207.4063,393.375 209.9063,393.375 Q210.6094,393.375 211.2578,393.5313 Q211.9063,393.6875 212.4688,393.9844 L212.4688,396.7031 Q211.8438,396.125 211.25,395.8516 Q210.6563,395.5781 210.0313,395.5781 Q208.6875,395.5781 208,396.6484 Q207.3125,397.7188 207.3125,399.8125 Q207.3125,401.9063 208,402.9766 Q208.6875,404.0469 210.0313,404.0469 Q210.6563,404.0469 211.25,403.7734 Q211.8438,403.5 212.4688,402.9219 L212.4688,405.6406 Z "/><text fill="#000000" font-family="sans-serif" font-size="12" lengthAdjust="spacingAndGlyphs" textLength="114" x="223.5" y="404.1543">ShuffleTranscoder</text><line style="stroke: #A80036; stroke-width: 1.5;" x1="195.5" x2="339.5" y1="416" y2="416"/><line style="stroke: #A80036; stroke-width: 1.5;" x1="195.5" x2="339.5" y1="424" y2="424"/><!--MD5=[dd6da64e9105d36621decf84eafeb13c]
reverse link Transcoder to ReverseTranscoder--><path d="M137.226,339.8899 C125.1417,354.9297 112.2233,371.0074 101.9739,383.7634 " fill="none" id="Transcoder&lt;-ReverseTranscoder" style="stroke: #A80036; stroke-width: 1.0; stroke-dasharray: 7.0,7.0;"/><polygon fill="none" points="131.8618,335.3902,149.8457,324.1839,142.7753,344.1592,131.8618,335.3902" style="stroke: #A80036; stroke-width: 1.0;"/><!--MD5=[668c5ccb86bfcdbd5d394795cea987eb]
reverse link Transcoder to ShuffleTranscoder--><path d="M212.1791,339.8899 C224.3948,354.9297 237.4536,371.0074 247.8144,383.7634 " fill="none" id="Transcoder&lt;-ShuffleTranscoder" style="stroke: #A80036; stroke-width: 1.0; stroke-dasharray: 7.0,7.0;"/><polygon fill="none" points="206.5981,344.1215,199.4223,324.1839,217.4652,335.295,206.5981,344.1215" style="stroke: #A80036; stroke-width: 1.0;"/><!--MD5=[df1aaf09040b052c8a19a4d2f5ea07ba]
link App to TranscoderFactory--><path d="M202.7305,38.5 C212.7073,38.5 222.6841,38.5 232.6608,38.5 " fill="none" id="App-&gt;TranscoderFactory" style="stroke: #A80036; stroke-width: 1.0;"/><polygon fill="#A80036" points="237.8781,38.5,228.8781,34.5,232.8781,38.5,228.8781,42.5,237.8781,38.5" style="stroke: #A80036; stroke-width: 1.0;"/><!--MD5=[ff0ee223e0e9456cb8b759a3000feb60]
link App to TranscodingService--><path d="M174.5,62.7819 C174.5,79.9665 174.5,103.4594 174.5,123.6913 " fill="none" id="App-&gt;TranscodingService" style="stroke: #A80036; stroke-width: 1.0;"/><polygon fill="#A80036" points="174.5,128.7589,178.5,119.7589,174.5,123.7589,170.5,119.7589,174.5,128.7589" style="stroke: #A80036; stroke-width: 1.0;"/><!--MD5=[74d0d4ad8f9c14aefe216bde799ed823]
link TranscodingService to Transcoder--><path d="M174.5,203.221 C174.5,220.4069 174.5,240.7234 174.5,257.7273 " fill="none" id="TranscodingService-&gt;Transcoder" style="stroke: #A80036; stroke-width: 1.0;"/><polygon fill="#A80036" points="174.5,262.8909,178.5,253.8909,174.5,257.8909,170.5,253.8909,174.5,262.8909" style="stroke: #A80036; stroke-width: 1.0;"/><!--MD5=[ded65bd67bfa1c534ee687ef6d39d189]
@startuml
class App {}

class TranscoderFactory {
  + getInstance(String transcoder):Transcoder
}

class TranscodingService {
  - transcoder:Transcoder
  + transcode(input:String):String
}

interface Transcoder {
  + transcode(input:String):String
}

class ReverseTranscoder implements Transcoder {
}

class ShuffleTranscoder implements Transcoder {
}

App -> TranscoderFactory
App - -> TranscodingService
TranscodingService - -> Transcoder
@enduml

PlantUML version 1.2019.12(Sun Nov 03 10:24:54 UTC 2019)
(GPL source distribution)
Java Runtime: OpenJDK Runtime Environment
JVM: OpenJDK 64-Bit Server VM
Java Version: 1.8.0_232-heroku-b09
Operating System: Linux
Default Encoding: UTF-8
Language: en
Country: US
--></g></svg>